<svg width="852" height="772" viewBox="0 0 852 772" fill="none" xmlns="http://www.w3.org/2000/svg">
<path fill-rule="evenodd" clip-rule="evenodd" d="M460 235C592.548 235 700 342.452 700 475C700 498.16 711.234 522.245 705.453 544.979C691.584 599.518 600 735 536 755C441.515 784.527 301.476 672.011 248.19 574.585C245.498 574.86 242.765 575 240 575C195.817 575 160 539.183 160 495C160 455.135 189.159 422.08 227.312 416.001C253.599 311.979 347.81 235 460 235ZM223.859 480.545L232.141 511.455L223.859 480.545Z" fill="white"/>
<path d="M223.859 480.545L232.141 511.455M460 235C592.548 235 700 342.452 700 475C700 498.16 711.235 522.245 705.453 544.979C691.584 599.518 600 735 536 755C441.515 784.527 301.476 672.011 248.19 574.585C245.498 574.86 242.765 575 240 575C195.817 575 160 539.183 160 495C160 455.135 189.159 422.08 227.312 416.001C253.599 311.979 347.81 235 460 235Z" stroke="black" stroke-width="24" stroke-linecap="round" stroke-linejoin="round"/>
<path d="M577 456C610.333 469.333 627 486 627 506C627 526 610.333 536 577 536" stroke="black" stroke-width="16" stroke-linecap="round" stroke-linejoin="round"/>
<path fill-rule="evenodd" clip-rule="evenodd" d="M477 615C504.33 621.667 527.664 625 547 625C566.336 625 583.003 621.667 597 615C584.33 648.333 560.997 665 527 665C493.003 665 476.336 648.333 477 615Z" stroke="black" stroke-width="16" stroke-linecap="round" stroke-linejoin="round"/>
<path fill-rule="evenodd" clip-rule="evenodd" d="M498 363C503.855 363 509.122 367.025 512.78 373.44L506 387L517.37 387C517.781 389.557 518 392.238 518 395C518 412.673 509.046 427 498 427C486.954 427 478 412.673 478 395C478 377.327 486.954 363 498 363ZM636 363C641.855 363 647.122 367.025 650.78 373.44L644 387L655.37 387C655.781 389.557 656 392.238 656 395C656 412.673 647.046 427 636 427C624.954 427 616 412.673 616 395C616 377.327 624.954 363 636 363Z" fill="black"/>
<path d="M522 356C517.195 349.333 509.195 346 498 346C486.805 346 473.472 349.333 458 356" stroke="black" stroke-width="16" stroke-linecap="round" stroke-linejoin="round"/>
<path d="M612 356C616.805 349.333 624.805 346 636 346C647.195 346 660.528 349.333 676 356" stroke="black" stroke-width="16" stroke-linecap="round" stroke-linejoin="round"/>
<path fill-rule="evenodd" clip-rule="evenodd" d="M709 145.498C726.104 172.997 753.172 192.301 769 220C793.891 263.558 796.077 318.611 796 385C795.968 413.018 810.693 438.737 809 456C804.13 505.655 787.838 514.601 796 539C803.333 560.921 820 569.587 846 565C807.594 598.832 775.928 618.832 751 625C726.072 631.168 692.739 634.128 651 633.881C680.333 597.247 699.667 549.702 709 491.247C715.192 452.465 696.615 404.941 692 384.633C684 349.427 633 335.809 599 314.885C576.333 300.935 560.333 281.34 551 256.098C547.931 254.204 537.503 274.457 506 304.921C484.998 325.231 459.664 337.852 430 342.784C450 317.542 461.667 297.282 465 282.004C468.333 266.726 464.333 246.134 453 220.227C455 250.784 450.333 277.022 439 298.943C427.667 320.863 407.667 338.466 379 351.752C387.985 338.167 391.985 320.564 391 298.943C390.109 279.388 385.109 256.803 376 231.188C374.739 271.491 372.405 300.386 369 317.874C360.896 359.488 264 479.29 285 509.182C299 529.11 323.667 539.049 359 539C337 556.333 317 568.333 299 575C272 585 213.006 577.83 240 585.166C249.432 605.904 252.306 608.229 264.874 622.032C277.254 635.63 179 649.931 113 631C69 618.379 39.3333 599.447 24 574.205C47.3303 579.999 56.6636 579.999 52 574.205C45.3119 565.896 29.9786 551.282 6 530.364C38.6157 539.476 59.2823 537.151 68 523.389C85.2192 496.208 67.7089 438.819 68 413.528C68.2918 388.174 89.2033 356.098 101 317.874C109.217 291.251 108.158 256.228 113 241.152C137 166.422 180.197 131.332 220 103.649C244.915 86.3214 265 36.8906 321 15.9663C377 -4.95799 400.945 15.9663 440 15.9663C457.495 15.9663 476.056 5.15398 492 6.99996C599.997 19.5039 670.66 83.8542 709 145.498Z" fill="black" stroke="black" stroke-width="12" stroke-linecap="round" stroke-linejoin="round"/>
</svg>
