<svg width="693" height="846" viewBox="0 0 693 846" fill="none" xmlns="http://www.w3.org/2000/svg">
<path fill-rule="evenodd" clip-rule="evenodd" d="M432 186C564.548 186 672 293.452 672 426C672 449.16 683.234 463.245 677.453 485.979C663.584 540.518 658.702 748.344 498 716C439.619 704.25 361 687 333 665C305 643 242.17 565.773 220.19 525.585C217.498 525.86 214.765 526 212 526C167.817 526 132 490.183 132 446C132 406.135 161.159 373.08 199.312 367.001C225.599 262.979 319.81 186 432 186ZM195.859 431.545L204.141 462.455L195.859 431.545Z" fill="white"/>
<path d="M195.859 431.545L204.141 462.455M432 186C564.548 186 672 293.452 672 426C672 449.16 683.235 463.245 677.453 485.979C663.584 540.518 658.702 748.344 498 716C439.619 704.25 361 687 333 665C305 643 242.17 565.773 220.19 525.585C217.498 525.86 214.765 526 212 526C167.817 526 132 490.183 132 446C132 406.135 161.159 373.08 199.312 367.001C225.599 262.979 319.81 186 432 186Z" stroke="black" stroke-width="24" stroke-linecap="round" stroke-linejoin="round"/>
<path d="M573 375C562.551 397.836 557.327 420.414 557.327 442.734C557.327 476.214 573 493.992 570.061 509.553C568.102 519.926 553.082 521.757 525 515.044" stroke="black" stroke-width="16" stroke-linecap="round" stroke-linejoin="round"/>
<path fill-rule="evenodd" clip-rule="evenodd" d="M429 548C429 548 495 562 527 562C559 562 589 552.528 589 552.528C589 552.528 588 621 518 621C448 621 429 548 429 548Z" stroke="black" stroke-width="16" stroke-linecap="round" stroke-linejoin="round"/>
<path fill-rule="evenodd" clip-rule="evenodd" d="M470 323C478.837 323 486 333.745 486 347C486 360.255 478.837 371 470 371C461.163 371 454 360.255 454 347C454 333.745 461.163 323 470 323ZM608 323C616.837 323 624 333.745 624 347C624 360.255 616.837 371 608 371C599.163 371 592 360.255 592 347C592 333.745 599.163 323 608 323Z" fill="black"/>
<path fill-rule="evenodd" clip-rule="evenodd" d="M562.91 282.625C566.416 277.966 583.95 273.776 603.527 278.85C623.104 283.924 690.263 305.06 690.263 305.06C690.263 305.06 659.746 298.836 634.883 296.223C610.02 293.61 569.579 296.023 569.579 296.023C569.579 296.023 559.404 287.284 562.91 282.625Z" fill="black" stroke="black" stroke-width="4" stroke-linecap="round" stroke-linejoin="round"/>
<path fill-rule="evenodd" clip-rule="evenodd" d="M514.481 282.625C510.974 277.966 493.44 273.776 473.864 278.85C454.287 283.924 387.128 305.06 387.128 305.06C387.128 305.06 417.645 298.836 442.508 296.223C467.371 293.61 507.812 296.023 507.812 296.023C507.812 296.023 517.987 287.284 514.481 282.625Z" fill="black" stroke="black" stroke-width="4" stroke-linecap="round" stroke-linejoin="round"/>
<path fill-rule="evenodd" clip-rule="evenodd" d="M325 8.00003C210 19 111 87 58 229C5 371 61.2872 496.774 75 591C84.1419 653.818 61.1419 728.484 6 815C92.8647 834.853 154.865 842.52 192 838C229.135 833.48 273.469 807.48 325 760C320.886 711.364 314.553 677.031 306 657C291.145 622.211 253.47 600.841 244 591C226.351 572.659 213.018 550.993 204 526C156 516.667 132 490 132 446C132 380 184 375 204 373C224 371 240 375 254 394C263.333 406.667 269 417.333 271 426C289.483 393.177 301.15 366.51 306 346C310.85 325.49 310.85 302.823 306 278C364.667 278 406.667 271 432 257C457.333 243 483 222.333 509 195C544.333 205.667 572.667 221 594 241C615.333 261 640.333 298 669 352C667 258.667 644.667 186 602 134C538 56 440 -2.99997 325 8.00003Z" fill="black" stroke="black" stroke-width="12" stroke-linecap="round" stroke-linejoin="round"/>
</svg>
