<svg width="612" height="677" viewBox="0 0 612 677" fill="none" xmlns="http://www.w3.org/2000/svg">
<path fill-rule="evenodd" clip-rule="evenodd" d="M337 145C469.548 145 577 252.452 577 385C577 517.548 569.548 665 397 665C267.715 665 163.748 582.22 119.739 484.954C118.832 484.985 117.918 485 117 485C72.8172 485 37 449.183 37 405C37 365.135 66.1588 332.08 104.312 326.001C130.599 221.979 224.81 145 337 145ZM100.859 390.545L109.141 421.455L100.859 390.545Z" fill="white"/>
<path d="M100.859 390.545L109.141 421.455M337 145C469.548 145 577 252.452 577 385C577 517.548 569.548 665 397 665C267.715 665 163.748 582.22 119.739 484.954C118.832 484.985 117.918 485 117 485C72.8172 485 37 449.183 37 405C37 365.135 66.1588 332.08 104.312 326.001C130.599 221.979 224.81 145 337 145Z" stroke="black" stroke-width="24" stroke-linecap="round" stroke-linejoin="round"/>
<path fill-rule="evenodd" clip-rule="evenodd" d="M449 326C449 326 470.892 379.522 478 389C481 393 498.906 407.256 497.774 419.58C495.065 449.076 449 450.359 449 450.359C449 450.359 505 455.489 505 419.58C505 403.222 492 398 479 386C471.959 379.5 449 326 449 326Z" fill="black" stroke="black" stroke-width="6" stroke-linecap="round" stroke-linejoin="round"/>
<path fill-rule="evenodd" clip-rule="evenodd" d="M337 526C374.387 522.771 402.387 519.438 421 516C439.613 512.562 463.946 506.229 494 497L472 546C449.193 553.762 432.193 558.095 421 559C409.807 559.905 393.807 558.238 373 554L337 526Z" stroke="black" stroke-width="16" stroke-linecap="round" stroke-linejoin="round"/>
<path fill-rule="evenodd" clip-rule="evenodd" d="M375 282C383.837 282 391 292.745 391 306C391 319.255 383.837 330 375 330C366.163 330 359 319.255 359 306C359 292.745 366.163 282 375 282ZM513 282C521.837 282 529 292.745 529 306C529 319.255 521.837 330 513 330C504.163 330 497 319.255 497 306C497 292.745 504.163 282 513 282Z" fill="black"/>
<path fill-rule="evenodd" clip-rule="evenodd" d="M487.541 257.005C487.541 257.005 533.644 255.216 546.813 261.149C559.982 267.082 558.21 277.484 558.21 277.484C558.21 277.484 551.419 269.992 542.34 265.348C533.26 260.703 487.541 257.005 487.541 257.005Z" fill="black" stroke="black" stroke-width="8" stroke-linecap="round" stroke-linejoin="round"/>
<path fill-rule="evenodd" clip-rule="evenodd" d="M400.459 257.005C400.459 257.005 354.356 255.216 341.187 261.149C328.018 267.082 329.79 277.484 329.79 277.484C329.79 277.484 336.581 269.992 345.66 265.348C354.74 260.703 400.459 257.005 400.459 257.005Z" fill="black" stroke="black" stroke-width="8" stroke-linecap="round" stroke-linejoin="round"/>
<path fill-rule="evenodd" clip-rule="evenodd" d="M379.19 268.354C391.612 269.248 406.019 272.362 422.409 277.697C427.107 279.227 434.521 280.112 444.65 280.355L445.337 280.338C455.116 280.072 462.3 279.192 466.892 277.697C483.282 272.362 497.689 269.248 510.111 268.354C527.696 267.089 556.031 269.215 595.113 274.732L596.301 274.9V295.629C591.298 297.828 588.752 300.01 588.664 302.175C586.482 355.635 568.64 372 528.658 372C490.152 372 471.86 351.096 455.561 307.63C453.424 301.933 449.893 299.025 444.967 298.906L444.65 298.902C439.559 298.902 435.922 301.812 433.74 307.63C417.441 351.096 399.149 372 360.643 372C320.661 372 302.819 355.635 300.637 302.175C300.549 300.01 298.003 297.829 293.001 295.63L293 296L94 316L98 307L292.999 275L293 274.9C332.697 269.258 361.427 267.076 379.19 268.354ZM369.612 274.971C337.972 272.789 323.789 279.336 317.243 286.973C310.697 294.61 298.696 361.161 356.519 364.434C414.343 367.707 419.798 300.065 416.525 292.428C413.252 284.791 401.251 277.154 369.612 274.971ZM519.581 274.971C487.942 277.154 475.941 284.791 472.667 292.428C469.394 300.065 474.85 367.707 532.673 364.434C590.497 361.161 578.496 294.61 571.949 286.973C565.403 279.336 551.22 272.789 519.581 274.971Z" fill="black" stroke="black" stroke-width="4" stroke-linecap="round" stroke-linejoin="round"/>
<path fill-rule="evenodd" clip-rule="evenodd" d="M84.001 485L117.001 493L168.001 570L167.012 570.138C159.394 571.17 154.724 571.124 153.001 570C140.11 561.586 132.667 547.235 121.001 535C106.896 520.207 94.563 503.54 84.001 485ZM360.001 11C400.484 15.465 435.917 34.728 465.824 60.427L468.31 60.901C508.949 68.792 553.312 77.503 573.001 106C598.334 142.666 608.668 185.666 604.001 235C587.061 195.032 561.001 163 545.033 159.568C565.909 196.158 573.001 227.184 573.001 239C573.001 278 556.334 318.666 549.001 344C549.001 309.333 541.334 251.333 496.001 208C442.019 156.399 346.818 184 307.001 184C276.276 184 292.967 230.879 265.621 265.411C269.677 279 278.001 299 299.001 318C266.561 317.983 253.728 298.541 243.816 277.856L240.487 278.41C237.89 278.847 235.302 279.31 232.911 279.879C236.102 292.945 243.217 308.546 254.256 326.682C239.736 314.356 229.268 300.345 222.851 284.648C222.503 285.067 222.217 285.517 222.001 286C198.365 338.739 198.001 359 186.001 421H171.001L169.629 417.851C154.93 384.257 143.054 361.64 134.001 350L133.16 348.929C119.41 331.583 104.959 321.5 93.001 325L92.246 325.23L91.711 325.403C82.924 328.306 63.241 337.727 49.001 355C43.75 361.369 38.084 373.369 32.001 391L31.066 389.594L29.701 387.517C17.007 368.071 10.107 353.565 9.00104 344C5.11904 310.442 1.00104 200 37.001 149C73.001 98 84.908 104.533 113.001 98C137.001 17.333 222.202 -4.19901 360.001 11Z" fill="black"/>
<path d="M84.0011 485L85.4141 479.169C83.0881 478.605 80.6481 479.478 79.2081 481.391C77.7681 483.303 77.6021 485.889 78.787 487.97L84.0011 485ZM117.001 493L122.003 489.687C121.167 488.425 119.885 487.525 118.414 487.169L117.001 493ZM168.001 570L168.829 575.942C170.87 575.658 172.623 574.346 173.47 572.467C174.318 570.588 174.141 568.405 173.003 566.687L168.001 570ZM167.012 570.138L167.818 576.083C167.826 576.082 167.833 576.081 167.84 576.08L167.012 570.138ZM465.824 60.427L461.914 64.977C462.709 65.661 463.669 66.124 464.699 66.32L465.824 60.427ZM468.31 60.901L469.453 55.011C469.447 55.01 469.441 55.009 469.435 55.008L468.31 60.901ZM604.001 235L598.477 237.341C599.549 239.871 602.202 241.349 604.917 240.929C607.632 240.51 609.715 238.3 609.974 235.565L604.001 235ZM545.033 159.568L546.294 153.702C543.98 153.205 541.59 154.114 540.192 156.024C538.794 157.933 538.649 160.486 539.821 162.542L545.033 159.568ZM549.001 344H543.001C543.001 346.988 545.2 349.521 548.158 349.94C551.117 350.36 553.933 348.539 554.764 345.668L549.001 344ZM265.621 265.411L260.918 261.686C259.702 263.22 259.312 265.251 259.872 267.127L265.621 265.411ZM299.001 318L298.998 324C301.48 324.001 303.706 322.474 304.599 320.158C305.492 317.842 304.867 315.216 303.026 313.551L299.001 318ZM243.816 277.856L249.227 275.263C248.073 272.854 245.465 271.499 242.83 271.937L243.816 277.856ZM240.487 278.41L239.501 272.492L239.491 272.493L240.487 278.41ZM232.911 279.879L231.521 274.042C229.967 274.412 228.625 275.386 227.792 276.749C226.959 278.112 226.703 279.751 227.082 281.302L232.911 279.879ZM254.256 326.682L250.373 331.256C252.617 333.162 255.913 333.157 258.152 331.245C260.391 329.333 260.912 326.078 259.381 323.563L254.256 326.682ZM222.851 284.648L228.405 282.377C227.607 280.427 225.845 279.038 223.763 278.718C221.68 278.397 219.582 279.193 218.235 280.814L222.851 284.648ZM186.001 421V427C188.875 427 191.345 424.962 191.892 422.14L186.001 421ZM171.001 421L165.5 423.397C166.454 425.585 168.614 427 171.001 427V421ZM169.629 417.851L175.129 415.455L175.126 415.446L169.629 417.851ZM134.001 350L138.737 346.316C138.731 346.309 138.726 346.302 138.72 346.295L134.001 350ZM133.16 348.929L137.879 345.223C137.873 345.216 137.868 345.209 137.862 345.202L133.16 348.929ZM93.0011 325L91.3161 319.241C91.2941 319.248 91.2731 319.254 91.2511 319.26L93.0011 325ZM92.2461 325.23L90.4971 319.49C90.4651 319.5 90.4321 319.51 90.4001 319.521L92.2461 325.23ZM91.7111 325.403L89.8651 319.694C89.8531 319.698 89.8411 319.702 89.8291 319.706L91.7111 325.403ZM32.0011 391L27.0041 394.322C28.2681 396.222 30.4991 397.241 32.7621 396.951C35.0261 396.662 36.9291 395.113 37.6731 392.957L32.0011 391ZM31.0661 389.594L26.0531 392.89C26.0581 392.899 26.0641 392.908 26.0701 392.916L31.0661 389.594ZM29.7011 387.517L24.6761 390.796C24.6801 390.802 24.6831 390.807 24.6871 390.813L29.7011 387.517ZM113.001 98L114.36 103.844C116.46 103.355 118.137 101.778 118.752 99.711L113.001 98ZM82.5871 490.831L115.587 498.831L118.414 487.169L85.4141 479.169L82.5871 490.831ZM111.999 496.313L162.999 573.313L173.003 566.687L122.003 489.687L111.999 496.313ZM167.173 564.057L166.185 564.195L167.84 576.08L168.829 575.942L167.173 564.057ZM166.206 564.192C162.526 564.691 159.776 564.897 157.855 564.878C156.895 564.869 156.278 564.803 155.926 564.739C155.508 564.662 155.77 564.642 156.28 564.975L149.721 575.024C151.094 575.92 152.585 576.327 153.765 576.543C155.012 576.771 156.361 576.864 157.737 576.877C160.486 576.904 163.88 576.617 167.818 576.083L166.206 564.192ZM156.28 564.975C150.669 561.313 146.073 556.248 141.229 550.187C136.547 544.33 131.417 537.23 125.343 530.859L116.658 539.14C122.251 545.006 126.676 551.199 131.855 557.679C136.871 563.956 142.442 570.273 149.721 575.024L156.28 564.975ZM125.343 530.859C111.59 516.435 99.5451 500.165 89.2141 482.03L78.787 487.97C89.58 506.916 102.202 523.979 116.658 539.14L125.343 530.859ZM359.343 16.964C398.293 21.26 432.633 39.817 461.914 64.977L469.735 55.876C439.201 29.638 402.675 9.67 360.659 5.036L359.343 16.964ZM464.699 66.32L467.185 66.795L469.435 55.008L466.949 54.533L464.699 66.32ZM467.166 66.791C487.581 70.755 508.359 74.827 526.474 81.367C544.612 87.914 559.253 96.658 568.064 109.41L577.937 102.589C567.059 86.845 549.675 76.984 530.549 70.08C511.401 63.167 489.677 58.938 469.453 55.011L467.166 66.791ZM568.064 109.41C592.504 144.784 602.577 186.339 598.028 234.435L609.974 235.565C614.758 184.994 604.164 140.549 577.937 102.589L568.064 109.41ZM609.525 232.658C600.865 212.224 589.849 193.751 578.858 179.86C573.364 172.917 567.794 167.013 562.432 162.564C557.172 158.2 551.662 154.856 546.294 153.702L543.772 165.435C546.387 165.996 550.123 167.944 554.77 171.799C559.315 175.571 564.312 180.816 569.447 187.306C579.713 200.28 590.198 217.807 598.477 237.341L609.525 232.658ZM539.821 162.542C560.396 198.603 567.001 228.589 567.001 239H579.001C579.001 225.78 571.422 193.714 550.244 156.595L539.821 162.542ZM567.001 239C567.001 257.707 562.995 277.019 557.972 295.011C555.466 303.988 552.728 312.565 550.138 320.537C547.566 328.455 545.106 335.878 543.237 342.331L554.764 345.668C556.563 339.455 558.936 332.294 561.551 324.244C564.149 316.247 566.953 307.47 569.53 298.238C574.674 279.814 579.001 259.293 579.001 239H567.001ZM555.001 344C555.001 308.675 547.223 248.662 500.147 203.663L491.855 212.337C535.445 254.004 543.001 309.992 543.001 344H555.001ZM500.147 203.663C471.431 176.214 432.142 170.194 396.113 170.65C378.018 170.879 360.434 172.75 345.048 174.533C329.45 176.341 316.51 178 307.001 178V190C317.401 190 331.292 188.208 346.43 186.454C361.779 184.674 378.835 182.87 396.265 182.649C431.286 182.205 466.589 188.185 491.855 212.337L500.147 203.663ZM307.001 178C302.387 178 298.279 178.884 294.706 180.784C291.116 182.693 288.424 185.437 286.377 188.612C282.47 194.667 280.667 202.747 279.152 210.622C275.968 227.163 273.483 245.818 260.918 261.686L270.325 269.136C285.105 250.471 287.947 228.421 290.935 212.89C292.506 204.728 294 198.93 296.46 195.117C297.596 193.357 298.855 192.169 300.34 191.379C301.842 190.58 303.933 190 307.001 190V178ZM259.872 267.127C264.137 281.415 272.926 302.5 294.975 322.449L303.026 313.551C283.075 295.5 275.218 276.585 271.371 263.695L259.872 267.127ZM299.004 312C284.135 311.992 274.248 307.59 266.914 301.166C259.373 294.559 254.115 285.463 249.227 275.263L238.405 280.449C243.43 290.935 249.544 301.902 259.007 310.192C268.678 318.664 281.427 323.991 298.998 324L299.004 312ZM242.83 271.937L239.501 272.492L241.473 284.329L244.802 283.774L242.83 271.937ZM239.491 272.493C236.879 272.933 234.122 273.423 231.521 274.042L234.301 285.716C236.483 285.196 238.901 284.762 241.483 284.327L239.491 272.493ZM227.082 281.302C230.479 295.209 237.934 311.407 249.13 329.802L259.381 323.563C248.5 305.686 241.725 290.681 238.74 278.455L227.082 281.302ZM258.139 322.108C244.261 310.327 234.414 297.079 228.405 282.377L217.297 286.918C224.121 303.611 235.211 318.385 250.373 331.256L258.139 322.108ZM218.235 280.814C217.565 281.621 216.981 282.531 216.526 283.546L227.476 288.454C227.466 288.477 227.457 288.492 227.453 288.498C227.449 288.505 227.452 288.499 227.466 288.482L218.235 280.814ZM216.526 283.546C192.534 337.08 192.043 358.207 180.11 419.86L191.892 422.14C203.959 359.792 204.197 340.397 227.476 288.454L216.526 283.546ZM186.001 415H171.001V427H186.001V415ZM176.501 418.603L175.129 415.455L164.128 420.248L165.5 423.397L176.501 418.603ZM175.126 415.446C160.436 381.872 148.303 358.616 138.737 346.316L129.265 353.683C137.805 364.664 149.424 386.642 164.132 420.256L175.126 415.446ZM138.72 346.295L137.879 345.223L128.441 352.634L129.282 353.705L138.72 346.295ZM137.862 345.202C130.755 336.236 123.21 328.806 115.58 324.054C107.978 319.319 99.5671 316.827 91.3161 319.241L94.6861 330.758C98.3931 329.674 103.187 330.473 109.237 334.24C115.26 337.992 121.815 344.275 128.458 352.656L137.862 345.202ZM91.2511 319.26L90.4971 319.49L93.9961 330.969L94.7501 330.739L91.2511 319.26ZM90.4001 319.521L89.8651 319.694L93.5581 331.112L94.093 330.939L90.4001 319.521ZM89.8291 319.706C80.3181 322.848 59.5351 332.79 44.3711 351.183L53.6301 358.816C66.9471 342.664 85.5311 333.764 93.5941 331.1L89.8291 319.706ZM44.3711 351.183C38.3751 358.457 32.4251 371.373 26.3291 389.043L37.6731 392.957C43.7421 375.365 49.1261 364.28 53.6301 358.816L44.3711 351.183ZM36.9971 387.678L36.0631 386.272L26.0701 392.916L27.0041 394.322L36.9971 387.678ZM36.0801 386.298L34.7141 384.221L24.6871 390.813L26.0531 392.89L36.0801 386.298ZM34.7251 384.237C28.4671 374.649 23.7201 366.405 20.4241 359.476C17.0941 352.476 15.4051 347.146 14.9611 343.31L3.04106 344.689C3.70306 350.419 6.01707 357.124 9.58706 364.63C13.1911 372.206 18.2411 380.938 24.6761 390.796L34.7251 384.237ZM14.9611 343.31C13.0601 326.877 11.0751 291.266 14.0271 253.508C17.0011 215.473 24.9041 176.542 41.9031 152.46L32.0991 145.54C13.0981 172.458 5.06006 214.247 2.06306 252.573C-0.954937 291.175 1.06006 327.565 3.04106 344.689L14.9611 343.31ZM41.9031 152.46C59.7561 127.167 71.0361 117.054 80.6741 112.179C85.4731 109.751 90.118 108.494 95.4901 107.441C100.621 106.435 107.274 105.492 114.36 103.844L111.642 92.156C104.681 93.775 99.3101 94.464 93.1831 95.665C87.2961 96.818 81.4471 98.34 75.2581 101.471C62.9191 107.712 50.2451 119.832 32.0991 145.54L41.9031 152.46ZM118.752 99.711C130.12 61.501 155.791 37.289 195.69 24.254C235.99 11.087 290.718 9.39501 359.343 16.964L360.659 5.036C291.484 -2.594 234.712 -1.11899 191.963 12.847C148.812 26.945 119.882 53.832 107.25 96.289L118.752 99.711Z" fill="black"/>
</svg>
