<svg width="564" height="600" viewBox="0 0 564 600" fill="none" xmlns="http://www.w3.org/2000/svg">
<path fill-rule="evenodd" clip-rule="evenodd" d="M312 68C444.548 68 552 175.452 552 308C552 440.548 544.548 588 372 588C242.715 588 138.748 505.22 94.7394 407.954C93.8317 407.985 92.9176 408 92 408C47.8172 408 12 372.183 12 328C12 288.135 41.1588 255.08 79.3121 249.001C105.599 144.979 199.81 68 312 68ZM75.8589 313.545L84.1411 344.455L75.8589 313.545Z" fill="white"/>
<path d="M75.8589 313.545L84.1411 344.455M312 68C444.548 68 552 175.452 552 308C552 440.548 544.548 588 372 588C242.715 588 138.748 505.22 94.7394 407.954C93.8317 407.985 92.9176 408 92 408C47.8172 408 12 372.183 12 328C12 288.135 41.1588 255.08 79.3121 249.001C105.599 144.979 199.81 68 312 68Z" stroke="black" stroke-width="24" stroke-linecap="round" stroke-linejoin="round"/>
<path d="M417.781 284.783C441.847 326.676 452.945 355.654 451.075 371.716C449.205 387.779 434.18 392.54 406 386" stroke="black" stroke-width="16" stroke-linecap="round" stroke-linejoin="round"/>
<path d="M329 448C355.13 462.667 383.13 470 413 470C442.87 470 462.87 462.667 473 448" stroke="black" stroke-width="16" stroke-linecap="round" stroke-linejoin="round"/>
<path fill-rule="evenodd" clip-rule="evenodd" d="M350 196C355.855 196 361.122 200.025 364.78 206.44L358 220L369.37 220C369.781 222.557 370 225.238 370 228C370 245.673 361.046 260 350 260C338.954 260 330 245.673 330 228C330 210.327 338.954 196 350 196ZM488 196C493.855 196 499.122 200.025 502.78 206.44L496 220L507.37 220C507.781 222.557 508 225.238 508 228C508 245.673 499.046 260 488 260C476.954 260 468 245.673 468 228C468 210.327 476.954 196 488 196Z" fill="black"/>
<path fill-rule="evenodd" clip-rule="evenodd" d="M350 174.719C370.574 177.796 385.574 183.965 395 193.227C380 187.618 365 184.814 350 184.814C335 184.814 316.667 187.618 295 193.227L305 179.766C314.426 173.324 329.426 171.641 350 174.719ZM488 174.719C508.574 171.641 523.574 173.324 533 179.766L543 193.227C521.333 187.618 503 184.814 488 184.814C473 184.814 458 187.618 443 193.227C452.426 183.965 467.426 177.796 488 174.719Z" fill="black" stroke="black" stroke-width="16" stroke-linecap="round" stroke-linejoin="round"/>
<path fill-rule="evenodd" clip-rule="evenodd" d="M67.1458 253.825H108.117L146 344C163.576 263.554 172.364 217.467 172.364 205.739C172.364 188.147 135.592 165.045 159.296 134.522C183 104 217.222 99.8774 256 107C305 116 323 120 363 118C389.667 116.667 425.667 107.667 471 91C422.333 30.3333 355 2.33333 269 7C140 14 68.1479 104.876 56.1229 136.542C48.1062 157.653 51.7805 196.747 67.1458 253.825Z" fill="black" stroke="black" stroke-width="12" stroke-linecap="round" stroke-linejoin="round"/>
</svg>
