<svg width="592" height="674" viewBox="0 0 592 674" fill="none" xmlns="http://www.w3.org/2000/svg">
<path fill-rule="evenodd" clip-rule="evenodd" d="M312 142C444.548 142 552 249.452 552 382C552 514.548 484.548 662 312 662C182.61 662 112.318 579.086 85.249 481.718C44.2258 478.292 12 443.909 12 402C12 362.135 41.1588 329.08 79.3121 323.001C105.599 218.979 199.81 142 312 142ZM75.8589 387.545L84.1411 418.455L75.8589 387.545Z" fill="white"/>
<path d="M75.8589 387.545L84.1411 418.455M312 142C444.548 142 552 249.452 552 382C552 514.548 484.548 662 312 662C182.61 662 112.318 579.086 85.249 481.718C44.2258 478.292 12 443.909 12 402C12 362.135 41.1588 329.08 79.3121 323.001C105.599 218.979 199.81 142 312 142Z" stroke="black" stroke-width="24" stroke-linecap="round" stroke-linejoin="round"/>
<path d="M411 457.381C440.333 450.46 458 440.333 464 427C473 407 417.033 369.393 440.161 342" stroke="black" stroke-width="16" stroke-linecap="round" stroke-linejoin="round"/>
<path fill-rule="evenodd" clip-rule="evenodd" d="M335.87 564.555C316.147 552.209 301.396 531.019 301.396 531.019C301.396 531.019 349 520.637 389 520.319C429 520 476.604 531.019 476.604 531.019C476.604 531.019 461.852 552.209 442.129 564.555C433.101 570.207 405 573 389.443 573C373.886 573 344.806 570.15 335.87 564.555Z" stroke="black" stroke-width="16" stroke-linecap="round" stroke-linejoin="round"/>
<path d="M349.322 564C349.322 564 369.161 556 389 556C408.838 556 428.677 564 428.677 564" stroke="black" stroke-width="8" stroke-linecap="round" stroke-linejoin="round"/>
<path d="M492 327C505.255 327 516 316.255 516 303C516 289.745 505.255 279 492 279C478.745 279 468 289.745 468 303C468 316.255 478.745 327 492 327Z" fill="black"/>
<path d="M441.536 294.334C464.194 284.73 481.327 279.522 492.935 278.71C504.543 277.899 519.332 280.874 537.302 287.637" stroke="black" stroke-width="12" stroke-linecap="round" stroke-linejoin="round"/>
<path d="M346 327C332.745 327 322 316.255 322 303C322 289.745 332.745 279 346 279C359.255 279 370 289.745 370 303C370 316.255 359.255 327 346 327Z" fill="black"/>
<path d="M396.465 294.334C373.807 284.73 356.674 279.522 345.066 278.71C333.458 277.899 318.668 280.874 300.698 287.637" stroke="black" stroke-width="12" stroke-linecap="round" stroke-linejoin="round"/>
<path d="M374 263C369.195 256.333 361.195 253 350 253C338.805 253 325.472 256.333 310 263" stroke="black" stroke-width="16" stroke-linecap="round" stroke-linejoin="round"/>
<path d="M464 263C468.805 256.333 476.805 253 488 253C499.195 253 512.528 256.333 528 263" stroke="black" stroke-width="16" stroke-linecap="round" stroke-linejoin="round"/>
<path fill-rule="evenodd" clip-rule="evenodd" d="M585.209 263.217C585.813 254.284 578.652 247 569.699 247H235C226.163 247 219 254.163 219 263V338.76C219 343.706 221.26 348.352 225.249 351.275C245.881 366.396 312.959 413 355.94 413C407.244 413 399.761 351.343 446.321 351.343C492.881 351.343 470.97 413 527.116 403.514C571.7 395.982 582.608 301.717 585.209 263.217Z" fill="white" stroke="black" stroke-width="12" stroke-linecap="round" stroke-linejoin="round"/>
<path fill-rule="evenodd" clip-rule="evenodd" d="M563.642 272.995C563.893 268.509 560.3 264.847 555.807 264.847H245C240.582 264.847 237 268.428 237 272.847V324.349C237 326.759 238.047 329.008 239.946 330.493C254.566 341.927 320.245 391.47 360.546 391.47C391.607 391.47 383.397 336.489 442.087 331.491C500.777 326.492 484.644 386.472 522.954 383.14C555.033 380.35 562.169 299.288 563.642 272.995Z" fill="black"/>
<mask id="mask0_64_78" style="mask-type:alpha" maskUnits="userSpaceOnUse" x="237" y="264" width="327" height="128">
<path fill-rule="evenodd" clip-rule="evenodd" d="M563.642 272.995C563.893 268.509 560.3 264.847 555.807 264.847H245C240.582 264.847 237 268.428 237 272.847V324.349C237 326.759 238.047 329.008 239.946 330.493C254.566 341.927 320.245 391.47 360.546 391.47C391.607 391.47 383.397 336.489 442.087 331.491C500.777 326.492 484.644 386.472 522.954 383.14C555.033 380.35 562.169 299.288 563.642 272.995Z" fill="white"/>
</mask>
<g mask="url(#mask0_64_78)">
<path d="M451.808 255.742L561.264 343.828" stroke="white" stroke-width="16" stroke-linecap="round" stroke-linejoin="round"/>
<path d="M476.436 241.979L585.892 330.065" stroke="white" stroke-width="8" stroke-linecap="round" stroke-linejoin="round"/>
</g>
<path fill-rule="evenodd" clip-rule="evenodd" d="M219 255.036L64 286V329.875L219 315V255.036Z" fill="black" stroke="black" stroke-width="12" stroke-linecap="round" stroke-linejoin="round"/>
<path fill-rule="evenodd" clip-rule="evenodd" d="M67.1458 327.825H108.117L146 418C148 372 150.667 341.667 154 327C157.333 312.333 166 299 180 287C184.687 274.205 188.02 261.539 190 249C191.98 236.461 192.647 223.795 192 211C211.278 205.028 228.945 198.028 245 190C261.055 181.972 276.055 172.639 290 162C321.019 177.567 344.019 186.9 359 190C378.333 194 405.667 194 441 190C457 198 470.333 207.667 481 219C491.667 230.333 499.333 240 504 248C519.337 246.068 529.004 237.068 533 221C538.995 196.897 529.309 184.454 533 148C535.461 123.697 541.794 97.364 552 69C536.671 74.7601 525.671 78.0934 519 79C493.953 82.4036 475.432 79 464 79C416.892 79 425 45 395 35C375 28.3333 354.901 28.3912 334.702 35.1736C317.058 22.35 298.824 13.9588 280 9.99999C261.176 6.04118 237.509 5.04118 209 6.99999C212.619 15.5595 209.952 26.8928 201 41C187.572 62.1607 184 63 172 74C160 85 142 81 127 98C117 109.333 113 122.667 115 138C107.53 138.741 100.196 140.741 93 144C85.8038 147.259 79.4705 152.592 74 160C96.0943 164.247 105.477 167.098 102.149 168.553C78.1033 179.064 51.6384 203.519 45 221C36.9834 242.111 44.3653 277.719 67.1458 327.825Z" fill="black" stroke="black" stroke-width="12" stroke-linecap="round" stroke-linejoin="round"/>
</svg>
