<svg width="700" height="706" viewBox="0 0 700 706" fill="none" xmlns="http://www.w3.org/2000/svg">
<path fill-rule="evenodd" clip-rule="evenodd" d="M421 174C553.548 174 661 281.452 661 414C661 546.548 613.548 694 481 694C381.56 694 262.476 611.011 209.19 513.585C206.498 513.86 203.765 514 201 514C156.817 514 121 478.183 121 434C121 394.135 150.159 361.08 188.312 355.001C214.599 250.979 308.81 174 421 174ZM184.859 419.545L193.141 450.455L184.859 419.545Z" fill="white"/>
<path d="M184.859 419.545L193.141 450.455M421 174C553.548 174 661 281.452 661 414C661 546.548 613.548 694 481 694C381.56 694 262.476 611.011 209.19 513.585C206.498 513.86 203.765 514 201 514C156.817 514 121 478.183 121 434C121 394.135 150.159 361.08 188.312 355.001C214.599 250.979 308.81 174 421 174Z" stroke="black" stroke-width="24" stroke-linecap="round" stroke-linejoin="round"/>
<path d="M526.781 390.783C544.18 432.676 551.945 461.654 550.075 477.716C548.205 493.779 536.514 498.54 515 492" stroke="black" stroke-width="16" stroke-linecap="round" stroke-linejoin="round"/>
<path fill-rule="evenodd" clip-rule="evenodd" d="M444.87 596.555C425.147 584.209 410.396 563.019 410.396 563.019C410.396 563.019 458 552.637 498 552.319C538 552 585.604 563.019 585.604 563.019C585.604 563.019 570.852 584.209 551.129 596.555C542.101 602.207 514 605 498.443 605C482.886 605 453.806 602.15 444.87 596.555Z" stroke="black" stroke-width="16" stroke-linecap="round" stroke-linejoin="round"/>
<path d="M458.322 596C458.322 596 478.161 588 498 588C517.838 588 537.677 596 537.677 596" stroke="black" stroke-width="8" stroke-linecap="round" stroke-linejoin="round"/>
<path d="M601 359C614.255 359 625 348.255 625 335C625 321.745 614.255 311 601 311C587.745 311 577 321.745 577 335C577 348.255 587.745 359 601 359Z" fill="black"/>
<path d="M550.535 326.334C573.193 316.73 590.326 311.522 601.934 310.71C613.542 309.899 628.332 312.874 646.302 319.637" stroke="black" stroke-width="12" stroke-linecap="round" stroke-linejoin="round"/>
<path d="M455 359C441.745 359 431 348.255 431 335C431 321.745 441.745 311 455 311C468.255 311 479 321.745 479 335C479 348.255 468.255 359 455 359Z" fill="black"/>
<path d="M505.465 326.334C482.807 316.73 465.674 311.522 454.066 310.71C442.458 309.899 427.668 312.874 409.698 319.637" stroke="black" stroke-width="12" stroke-linecap="round" stroke-linejoin="round"/>
<path fill-rule="evenodd" clip-rule="evenodd" d="M551.391 277.335C554.391 272.335 611.391 254.335 631.391 257.335C651.391 260.335 680.391 286.335 680.391 286.335C680.391 286.335 653.391 275.335 628.391 275.335C603.391 275.335 568.391 293.335 568.391 293.335C568.391 293.335 548.391 282.335 551.391 277.335Z" fill="black" stroke="black" stroke-width="4" stroke-linecap="round" stroke-linejoin="round"/>
<path fill-rule="evenodd" clip-rule="evenodd" d="M504 277.335C501 272.335 444 254.335 424 257.335C404 260.335 375 286.335 375 286.335C375 286.335 402 275.335 427 275.335C452 275.335 487 293.335 487 293.335C487 293.335 507 282.335 504 277.335Z" fill="black" stroke="black" stroke-width="4" stroke-linecap="round" stroke-linejoin="round"/>
<path fill-rule="evenodd" clip-rule="evenodd" d="M407.149 278.233C425.672 282.13 461.261 295.624 502.69 309.062L503.464 309.308C509.118 311.073 517.033 312.835 527.21 314.595V331.985C522.162 334.509 519.062 336.881 517.909 339.099C503.536 366.765 476.48 384.946 435.051 375.461C378.767 362.574 359.801 294.833 358.11 283.767C356.419 272.7 374.205 271.303 407.149 278.233ZM697.89 283.767C696.199 294.833 677.233 362.574 620.949 375.461C579.52 384.946 552.464 366.765 538.091 339.099C536.969 336.941 534.004 334.637 529.195 332.189L528.79 331.985V314.595L530.196 314.349C540.162 312.59 547.867 310.827 553.31 309.062L555.788 308.255C596.156 295.088 630.698 282.052 648.851 278.233L650.809 277.828C682.498 271.363 699.547 272.922 697.89 283.767ZM391.93 301.157C375.02 320.918 407.149 363.604 439.278 371.508C471.407 379.413 512.836 354.908 505.227 331.985C497.617 309.062 417.295 282.976 391.93 301.157ZM664.07 301.157C638.705 282.976 558.383 309.062 550.773 331.985C543.164 354.908 584.593 379.413 616.722 371.508C648.851 363.604 680.98 320.918 664.07 301.157Z" fill="black" stroke="black" stroke-width="4" stroke-linecap="round" stroke-linejoin="round"/>
<path fill-rule="evenodd" clip-rule="evenodd" d="M377 304L182 336L178 345L377 325V304Z" fill="black" stroke="black" stroke-width="4" stroke-linecap="round" stroke-linejoin="round"/>
<path fill-rule="evenodd" clip-rule="evenodd" d="M396.002 7.00001C459.002 11 490.359 33.22 533.002 68C546.099 62.68 574.002 64 606.002 95C638.002 126 609.533 176.003 599.002 243C533.977 195.473 468.977 195.473 404.002 243C306.539 314.29 314.668 388 268.002 420L265.719 415.336L263.832 411.519C255.738 395.231 250.128 385.058 247.002 381C241.545 373.918 222.322 358.08 189.002 362C166.335 364.667 118.002 403 131.002 448C136.838 468.204 150.234 484.023 171.189 495.459C181.349 501.003 207.002 509 207.002 509C207.002 509 196.002 511 188.002 511C180.002 511 170.002 508 170.002 508C170.002 508 121.002 566 65.002 561C9.00201 556 -3.99799 498 15.002 461C34.002 424 109.424 440.247 108.002 435C61.122 441.624 51.819 417.4 15.002 412C56.993 404.839 70.265 422.383 108.002 412C107.549 409.903 65.949 384.737 37.002 381C69.091 375.029 73.391 391.95 102.002 384C92.216 322.783 86.716 224.137 131.002 155C203.946 41.123 333.002 3.00001 396.002 7.00001Z" fill="black" stroke="black" stroke-width="12" stroke-linecap="round" stroke-linejoin="round"/>
</svg>
