<svg viewBox="0 0 1080 1080" fill="none" xmlns="http://www.w3.org/2000/svg">        <defs>    <filter id="filter" x="-20%" y="-20%" width="140%" height="140%" filterUnits="objectBoundingBox" primitiveUnits="userSpaceOnUse" color-interpolation-filters="linearRGB">      <feMorphology operator="dilate" radius="20 20" in="SourceAlpha" result="morphology"/>      <feFlood flood-color="#ffffff" flood-opacity="1" result="flood"/>      <feComposite in="flood" in2="morphology" operator="in" result="composite"/>      <feMerge result="merge">            <feMergeNode in="composite" result="mergeNode"/>        <feMergeNode in="SourceGraphic" result="mergeNode1"/>        </feMerge>    </filter>  </defs>        <g id="notion-avatar" filter="url(#filter)">          <g id="notion-avatar-face" fill="#ffffff">            <title>Face/ 2</title>    <g id="Face/-2" stroke="none" stroke-width="1" fill-rule="evenodd" stroke-linecap="round" stroke-linejoin="round">        <path d="M532,379 C664.54834,379 772,486.45166 772,619 C772,751.54834 664.54834,899 532,899 C432.699202,899 347.483933,816.242653 310.982017,718.993409 C267.268677,718.448846 232,682.843144 232,639 C232,599.134956 261.158843,566.080325 299.312086,560.00055 C325.599297,455.979213 419.809919,379 532,379 Z M295.858895,624.545187 L304.141105,655.454813" id="Path" stroke="#000000" stroke-width="24"/>    </g>      </g><g id="notion-avatar-nose">            <title>Nose/ 1</title>    <g id="Nose/-1" stroke="none" stroke-width="1" fill="none" fill-rule="evenodd" stroke-linecap="round" stroke-linejoin="round">        <path d="M633.532552,569.006852 C651.291821,622.395473 661.086671,652.555363 662.917104,659.486521 C664.747537,666.41768 663.749048,673.591123 659.921638,681.006852" id="Line" stroke="#000000" stroke-width="16" transform="translate(648.668966, 625.006852) rotate(-3.225647) translate(-648.668966, -625.006852) "/>    </g>      </g><g id="notion-avatar-mouth">            <title>Mouth/ 1</title>    <g id="Mouth/-1" stroke="none" stroke-width="1" fill="none" fill-rule="evenodd" stroke-linecap="round" stroke-linejoin="round">        <path d="M549,759 C575.12979,773.666667 603.12979,781 633,781 C662.87021,781 682.87021,773.666667 693,759" id="Path" stroke="#000000" stroke-width="16"/>    </g>      </g><g id="notion-avatar-eyes">            <title>Eyes/ 4</title>    <g id="Eyes/-4" stroke="none" stroke-width="1" fill="none" fill-rule="evenodd">        <path d="M570,516 C583.254834,516 594,526.745166 594,540 C594,553.254834 583.254834,564 570,564 C556.745166,564 546,553.254834 546,540 C546,526.745166 556.745166,516 570,516 Z M708,516 C721.254834,516 732,526.745166 732,540 C732,553.254834 721.254834,564 708,564 C694.745166,564 684,553.254834 684,540 C684,526.745166 694.745166,516 708,516 Z M562,526 C558.686292,526 556,528.686292 556,532 C556,535.313708 558.686292,538 562,538 C565.313708,538 568,535.313708 568,532 C568,528.686292 565.313708,526 562,526 Z M700,526 C696.686292,526 694,528.686292 694,532 C694,535.313708 696.686292,538 700,538 C703.313708,538 706,535.313708 706,532 C706,528.686292 703.313708,526 700,526 Z" id="Combined-Shape" fill="#000000"/>    </g>      </g><g id="notion-avatar-eyebrows">        <g id="Eyebrows/ 11"><g id="Group"><path id="Path" fill-rule="evenodd" clip-rule="evenodd" d="M682.541 491.005C682.541 491.005 728.644 489.216 741.813 495.149C754.982 501.082 753.21 511.484 753.21 511.484C753.21 511.484 746.419 503.992 737.34 499.348C728.26 494.703 682.541 491.005 682.541 491.005Z" fill="black" stroke="black" stroke-width="8" stroke-linecap="round" stroke-linejoin="round"/><path id="Path_2" fill-rule="evenodd" clip-rule="evenodd" d="M595.459 491.005C595.459 491.005 549.356 489.216 536.187 495.149C523.018 501.082 524.79 511.484 524.79 511.484C524.79 511.484 531.581 503.992 540.66 499.348C549.74 494.703 595.459 491.005 595.459 491.005Z" fill="black" stroke="black" stroke-width="8" stroke-linecap="round" stroke-linejoin="round"/></g></g>      </g><g id="notion-avatar-glasses">            <title>Glasses/ 1</title>    <g id="Glasses/-1" stroke="none" stroke-width="1" fill="none" fill-rule="evenodd" stroke-linecap="round" stroke-linejoin="round">        <g id="Group" transform="translate(293.311103, 479.000000)" stroke="#000000" stroke-width="16">            <circle id="Oval" cx="272.688897" cy="60" r="60"/>            <circle id="Oval" cx="416.688897" cy="60" r="60"/>            <path d="M368.688897,13 C360.688897,7.66666667 352.688897,5 344.688897,5 C336.688897,5 328.688897,7.66666667 320.688897,13" id="Path"/>            <line x1="216.688897" y1="36" x2="1" y2="79.3393577" id="Path" transform="translate(108.844448, 57.669679) rotate(1.361411) translate(-108.844448, -57.669679) "/>        </g>    </g>      </g><g id="notion-avatar-hair">            <title>Hairstyle/ 25</title>    <g id="Hairstyle/-25" stroke="none" stroke-width="1" fill="none" fill-rule="evenodd" stroke-linecap="round" stroke-linejoin="round">        <path d="M227,151 C291,143 344.152059,161.487028 368.024158,212.689811 C410.238527,194.447151 459.304239,186 515,186 C629.125983,186 703.747536,236.594939 747,304 C779.083989,354 792.083989,420.666667 786,504 L782.3412,503.1612 C722.927067,489.4804 699,484 661,460 C635.666667,444 602.333333,419.666667 561,387 C524.333333,437 495.333333,470 474,486 C442,510 357,547 304,565 C251,583 232,598 232,648 C232,681.333333 258.666667,705 312,719 C325.996223,746.033167 340.996223,769.366501 357,789 C373.003777,808.633499 393.003777,825.633499 417,840 C335.666667,855.333333 262.333333,855.333333 197,840 C131.666667,824.666667 79.3333333,791 40,739 C94.6666667,735 127.666667,710.333333 139,665 C169.469054,543.123784 93,519 93,379 C93,239 147.699952,160.912506 227,151 Z" id="Path" stroke="#000000" stroke-width="12" fill="#000000"/>    </g>      </g><g id="notion-avatar-accessories">            <title>Accessories/ 0</title>    <g id="Accessories/-0" stroke="none" stroke-width="1" fill="none" fill-rule="evenodd"/>      </g><g id="notion-avatar-details">            <title>Details/ 0</title>    <g id="Details/-0" stroke="none" stroke-width="1" fill="none" fill-rule="evenodd"/>      </g><g id="notion-avatar-beard">            <title>Beard/ 0</title>    <g id="Beard/-0" stroke="none" stroke-width="1" fill="none" fill-rule="evenodd"/>      </g>        </g>        </svg>