<svg width="760" height="768" viewBox="0 0 760 768" fill="none" xmlns="http://www.w3.org/2000/svg">
<path fill-rule="evenodd" clip-rule="evenodd" d="M498 236C630.548 236 738 343.452 738 476C738 608.548 630.548 756 498 756C398.699 756 313.484 673.243 276.982 575.993C233.269 575.449 198 539.843 198 496C198 456.135 227.159 423.08 265.312 417.001C291.599 312.979 385.81 236 498 236ZM261.859 481.545L270.141 512.455L261.859 481.545Z" fill="white"/>
<path d="M261.859 481.545L270.141 512.455M498 236C630.548 236 738 343.452 738 476C738 608.548 630.548 756 498 756C398.699 756 313.484 673.243 276.982 575.993C233.269 575.449 198 539.843 198 496C198 456.135 227.159 423.08 265.312 417.001C291.599 312.979 385.81 236 498 236Z" stroke="black" stroke-width="24" stroke-linecap="round" stroke-linejoin="round"/>
<path d="M596.406 426.947C617.141 479.252 628.617 508.813 630.835 515.63C633.052 522.447 632.459 529.666 629.055 537.285" stroke="black" stroke-width="16" stroke-linecap="round" stroke-linejoin="round"/>
<path d="M515 616C541.13 630.667 569.13 638 599 638C628.87 638 648.87 630.667 659 616" stroke="black" stroke-width="16" stroke-linecap="round" stroke-linejoin="round"/>
<path fill-rule="evenodd" clip-rule="evenodd" d="M536 373C549.255 373 560 383.745 560 397C560 410.255 549.255 421 536 421C522.745 421 512 410.255 512 397C512 383.745 522.745 373 536 373ZM674 373C687.255 373 698 383.745 698 397C698 410.255 687.255 421 674 421C660.745 421 650 410.255 650 397C650 383.745 660.745 373 674 373ZM528 383C524.686 383 522 385.686 522 389C522 392.314 524.686 395 528 395C531.314 395 534 392.314 534 389C534 385.686 531.314 383 528 383ZM666 383C662.686 383 660 385.686 660 389C660 392.314 662.686 395 666 395C669.314 395 672 392.314 672 389C672 385.686 669.314 383 666 383Z" fill="black"/>
<path fill-rule="evenodd" clip-rule="evenodd" d="M648.541 348.005C648.541 348.005 694.644 346.216 707.813 352.149C720.982 358.082 719.21 368.484 719.21 368.484C719.21 368.484 712.419 360.992 703.34 356.348C694.26 351.703 648.541 348.005 648.541 348.005Z" fill="black" stroke="black" stroke-width="8" stroke-linecap="round" stroke-linejoin="round"/>
<path fill-rule="evenodd" clip-rule="evenodd" d="M561.459 348.005C561.459 348.005 515.356 346.216 502.187 352.149C489.018 358.082 490.79 368.484 490.79 368.484C490.79 368.484 497.581 360.992 506.66 356.348C515.74 351.703 561.459 348.005 561.459 348.005Z" fill="black" stroke="black" stroke-width="8" stroke-linecap="round" stroke-linejoin="round"/>
<path d="M532 456C565.137 456 592 429.137 592 396C592 362.863 565.137 336 532 336C498.863 336 472 362.863 472 396C472 429.137 498.863 456 532 456Z" stroke="black" stroke-width="16" stroke-linecap="round" stroke-linejoin="round"/>
<path d="M676 456C709.137 456 736 429.137 736 396C736 362.863 709.137 336 676 336C642.863 336 616 362.863 616 396C616 429.137 642.863 456 676 456Z" stroke="black" stroke-width="16" stroke-linecap="round" stroke-linejoin="round"/>
<path d="M628 349C620 343.667 612 341 604 341C596 341 588 343.667 580 349" stroke="black" stroke-width="16" stroke-linecap="round" stroke-linejoin="round"/>
<path d="M476.484 374.568L259.827 412.771" stroke="black" stroke-width="16" stroke-linecap="round" stroke-linejoin="round"/>
<path fill-rule="evenodd" clip-rule="evenodd" d="M193 7.99999C257 -1.33514e-05 310.152 18.487 334.024 69.6898C376.239 51.4471 425.304 43 481 43C595.126 43 669.748 93.5949 713 161C745.084 211 758.084 277.667 752 361L748.341 360.161C688.927 346.48 665 341 627 317C601.667 301 568.333 276.667 527 244C490.333 294 461.333 327 440 343C408 367 323 404 270 422C217 440 198 455 198 505C198 538.333 224.667 562 278 576C291.996 603.033 306.996 626.367 323 646C339.004 665.633 359.004 682.633 383 697C301.667 712.333 228.333 712.333 163 697C97.6667 681.667 45.3333 648 6 596C60.6667 592 93.6667 567.333 105 522C135.469 400.124 59 376 59 236C59 96 113.7 17.9125 193 7.99999Z" fill="black" stroke="black" stroke-width="12" stroke-linecap="round" stroke-linejoin="round"/>
</svg>
