<svg width="726" height="791" viewBox="0 0 726 791" fill="none" xmlns="http://www.w3.org/2000/svg">
<path fill-rule="evenodd" clip-rule="evenodd" d="M456 259C588.548 259 696 366.452 696 499C696 631.548 608.548 779 516 779C459.133 779 275.669 681.612 237.753 598.981L237.323 598.989L236 599C191.817 599 156 563.183 156 519C156 479.135 185.159 446.08 223.312 440.001C249.599 335.979 343.81 259 456 259ZM219.859 504.545L228.141 535.455L219.859 504.545Z" fill="white"/>
<path d="M219.859 504.545L228.141 535.455M456 259C588.548 259 696 366.452 696 499C696 631.548 608.548 779 516 779C459.133 779 275.669 681.612 237.753 598.981L237.323 598.989L236 599C191.817 599 156 563.183 156 519C156 479.135 185.159 446.08 223.312 440.001C249.599 335.979 343.81 259 456 259Z" stroke="black" stroke-width="24" stroke-linecap="round" stroke-linejoin="round"/>
<path fill-rule="evenodd" clip-rule="evenodd" d="M572.516 481C572.516 481 588.222 483.637 596 489.977C609.06 500.622 617.906 521.256 616.774 533.58C614.065 563.076 568 564.359 568 564.359C568 564.359 624 569.489 624 533.58C624 517.222 613.433 499.065 596 488.695C587.922 483.889 572.516 481 572.516 481Z" fill="black" stroke="black" stroke-width="6" stroke-linecap="round" stroke-linejoin="round"/>
<path d="M519.535 667C507.017 664.778 493.106 659.944 477.803 652.5C462.499 645.056 456.537 640.222 459.917 638C483.764 644.667 507.612 648 531.459 648C555.306 648 579.153 644.667 603 638C601.013 642.833 595.051 647.667 585.115 652.5C575.178 657.333 561.268 662.167 543.382 667" stroke="black" stroke-width="16" stroke-linecap="round" stroke-linejoin="round"/>
<path fill-rule="evenodd" clip-rule="evenodd" d="M494 387C499.855 387 505.122 391.025 508.78 397.44L502 411L513.37 411C513.781 413.557 514 416.238 514 419C514 436.673 505.046 451 494 451C482.954 451 474 436.673 474 419C474 401.327 482.954 387 494 387ZM632 387C637.855 387 643.122 391.025 646.78 397.44L640 411L651.37 411C651.781 413.557 652 416.238 652 419C652 436.673 643.046 451 632 451C620.954 451 612 436.673 612 419C612 401.327 620.954 387 632 387Z" fill="black"/>
<path d="M449 396C461.889 388 476.889 384 494 384C511.111 384 526.111 388 539 396" stroke="black" stroke-width="12" stroke-linecap="round" stroke-linejoin="round"/>
<path d="M587 396C599.889 388 614.889 384 632 384C649.111 384 664.111 388 677 396" stroke="black" stroke-width="12" stroke-linecap="round" stroke-linejoin="round"/>
<path fill-rule="evenodd" clip-rule="evenodd" d="M720.197 378.825C726.432 386.701 728.214 431.594 699.711 457.584C682.404 473.366 642.381 477.488 615.986 467.823C599.083 461.634 590.828 443.723 588.445 439.591L588.374 439.47C580.818 426.621 572.694 417.797 564 412.997C555.444 417.721 547.44 426.342 539.986 438.861L539.626 439.47C537.338 443.36 529.088 461.571 512.014 467.823C485.619 477.488 445.596 473.366 428.289 457.584C399.786 431.594 401.568 386.701 407.803 378.825C414.037 370.949 456.791 365.436 491.528 371.736C526.265 378.037 541.492 394.282 548.533 396.939C552.929 398.599 557.896 399.395 563.434 399.328L563.435 399.302L564 399.318L564.565 399.302L564.566 399.328C570.104 399.395 575.071 398.599 579.467 396.939C586.508 394.282 601.735 378.037 636.472 371.736C671.209 365.436 713.963 370.949 720.197 378.825ZM422.054 384.338C402.458 397.727 420.272 444.195 438.977 457.584C457.682 470.973 502.216 467.823 512.905 460.735C523.593 453.646 547.642 422.93 539.626 403.24C531.609 383.55 450.556 370.161 422.054 384.338ZM705.946 384.338C677.444 370.161 596.391 383.55 588.374 403.24C580.358 422.93 604.407 453.646 615.095 460.735C625.784 467.823 670.318 470.973 689.023 457.584C707.728 444.195 725.542 397.727 705.946 384.338Z" fill="black" stroke="black" stroke-width="4" stroke-linecap="round" stroke-linejoin="round"/>
<path fill-rule="evenodd" clip-rule="evenodd" d="M412 389L217 421L213 430L412 410V389Z" fill="black" stroke="black" stroke-width="4" stroke-linecap="round" stroke-linejoin="round"/>
<path fill-rule="evenodd" clip-rule="evenodd" d="M156 6C216.22 6 268.152 41.487 292.024 92.6898C334.239 74.4471 383.304 66 439 66C553.126 66 627.748 116.595 671 184C692.389 217.333 705.389 273.667 710 353H604L574 288V353H456L424 272L427 353H309C313.667 373.667 315 392.333 313 409C310 434 285.052 469.961 282 466C276.543 458.918 257.32 443.08 224 447C201.333 449.667 173 476 164 505C140.029 449.082 122.509 356.748 131.442 303.999C60.2832 292.282 6 230.48 6 156C6 73.1573 73.1573 6 156 6Z" fill="black" stroke="black" stroke-width="12" stroke-linecap="round" stroke-linejoin="round"/>
</svg>
