<svg width="610" height="728" viewBox="0 0 610 728" fill="none" xmlns="http://www.w3.org/2000/svg">
<path fill-rule="evenodd" clip-rule="evenodd" d="M341 236C473.548 236 581 343.452 581 476C581 608.548 513.548 716 341 716C214.843 716 144.867 658.56 116.359 575.867C74.3367 573.465 41 538.625 41 496C41 456.135 70.1588 423.08 108.312 417.001C134.599 312.979 228.81 236 341 236ZM104.859 481.545L113.141 512.455L104.859 481.545Z" fill="white"/>
<path d="M104.859 481.545L113.141 512.455M341 236C473.548 236 581 343.452 581 476C581 608.548 513.548 716 341 716C214.843 716 144.867 658.56 116.359 575.867C74.3367 573.465 41 538.625 41 496C41 456.135 70.1588 423.08 108.312 417.001C134.599 312.979 228.81 236 341 236Z" stroke="black" stroke-width="24" stroke-linecap="round" stroke-linejoin="round"/>
<path d="M458 457C478 463.667 488 477 488 497C488 517 478 530.333 458 537" stroke="black" stroke-width="16" stroke-linecap="round" stroke-linejoin="round"/>
<path fill-rule="evenodd" clip-rule="evenodd" d="M505 605.043C505 605.043 461.693 608.692 433.619 607.391C405.544 606.09 353 598 353 598C353 598 376.514 670 430.26 670C459.652 670 473.489 658.44 488.204 636.348C494.215 627.324 505 605.043 505 605.043Z" stroke="black" stroke-width="12" stroke-linecap="round" stroke-linejoin="round"/>
<path d="M517 602.444C517 602.444 469.212 610.222 431.485 607.111C393.758 604 351 597 351 597" stroke="black" stroke-width="12" stroke-linecap="round" stroke-linejoin="round"/>
<path d="M346 602C346 602 348.438 597.385 351.688 595.077C354.938 592.769 359 592 359 592" stroke="black" stroke-width="12" stroke-linecap="round" stroke-linejoin="round"/>
<path d="M378 645C378 645 397.349 634 434.365 634C471.381 634 484 643.429 484 643.429" stroke="black" stroke-width="12" stroke-linecap="round" stroke-linejoin="round"/>
<path d="M379 373.5C383.199 373.5 387.062 376.053 389.897 380.307C392.731 384.557 394.5 390.458 394.5 397C394.5 403.542 392.731 409.443 389.897 413.693C387.062 417.947 383.199 420.5 379 420.5C374.801 420.5 370.938 417.947 368.103 413.693C365.269 409.443 363.5 403.542 363.5 397C363.5 390.458 365.269 384.557 368.103 380.307C370.938 376.053 374.801 373.5 379 373.5ZM517 373.5C521.199 373.5 525.062 376.053 527.897 380.307C530.731 384.557 532.5 390.458 532.5 397C532.5 403.542 530.731 409.443 527.897 413.693C525.062 417.947 521.199 420.5 517 420.5C512.801 420.5 508.938 417.947 506.103 413.693C503.269 409.443 501.5 403.542 501.5 397C501.5 390.458 503.269 384.557 506.103 380.307C508.938 376.053 512.801 373.5 517 373.5Z" fill="black" stroke="black"/>
<path fill-rule="evenodd" clip-rule="evenodd" d="M566 344.2C566 351.4 544.667 351.4 526 351.4C507.333 351.4 470 355 470 351.4C470 347.8 503.986 337 526 337L529.27 337.001C549.768 337.018 566 337.36 566 344.2ZM370 337C392.014 337 426 347.8 426 351.4C426 355 388.667 351.4 370 351.4C351.333 351.4 330 351.4 330 344.2C330 337.36 346.232 337.018 366.73 337.001L370 337Z" fill="black" stroke="black" stroke-width="16" stroke-linecap="round" stroke-linejoin="round"/>
<path fill-rule="evenodd" clip-rule="evenodd" d="M398.5 6C440.43 6 476.646 30.4607 493.659 65.8907C530.098 71.499 558 102.991 558 141C558 143.48 557.881 145.931 557.649 148.35C585.884 164.886 608.446 187.957 603 217C595 259.667 569.667 295 527 323L524.086 320.567C492.962 294.636 470.933 278.113 458 271C424.112 252.362 369.361 246 341 246C303.329 246 268.329 252.667 236 266C236.443 276.124 238.109 286.458 241 297C243.891 307.542 247.891 317.876 253 328C227.423 344.164 212.862 356.705 209.317 365.623C204.053 378.866 199.817 449.761 195.449 508.362L195.177 512H175.146L137.204 421.825H96.1693C90.8963 402.268 86.998 384.821 84.4744 369.487C39.8545 361.457 6 322.432 6 275.5C6 245.972 19.4013 219.574 40.4535 202.056C36.3499 194.983 34 186.766 34 178C34 151.49 55.4903 130 82 130L82.5168 130.003C87.7838 76.6655 132.776 35 187.5 35C204.981 35 221.469 39.2516 235.986 46.7773C249.35 35.0843 266.848 28 286 28C299.488 28 312.155 31.5135 323.136 37.6753C342.283 18.1282 368.975 6 398.5 6Z" fill="black" stroke="black" stroke-width="12" stroke-linecap="round" stroke-linejoin="round"/>
</svg>
