<svg width="602" height="686" viewBox="0 0 602 686" fill="none" xmlns="http://www.w3.org/2000/svg">
<path fill-rule="evenodd" clip-rule="evenodd" d="M312 154C444.548 154 552 261.452 552 394C552 526.548 544.548 674 372 674C242.715 674 138.748 591.22 94.7394 493.954C93.8317 493.985 92.9176 494 92 494C47.8172 494 12 458.183 12 414C12 374.135 41.1588 341.08 79.3121 335.001C105.599 230.979 199.81 154 312 154ZM75.8589 399.545L84.1411 430.455L75.8589 399.545Z" fill="white"/>
<path d="M75.8589 399.545L84.1411 430.455M312 154C444.548 154 552 261.452 552 394C552 526.548 544.548 674 372 674C242.715 674 138.748 591.22 94.7394 493.954C93.8317 493.985 92.9176 494 92 494C47.8172 494 12 458.183 12 414C12 374.135 41.1588 341.08 79.3121 335.001C105.599 230.979 199.81 154 312 154Z" stroke="black" stroke-width="24" stroke-linecap="round" stroke-linejoin="round"/>
<path d="M417.781 370.783C435.18 412.676 442.945 441.654 441.075 457.716C439.205 473.779 427.514 478.54 406 472" stroke="black" stroke-width="16" stroke-linecap="round" stroke-linejoin="round"/>
<path d="M352 544C365.776 549.333 379.109 552 392 552C404.891 552 418.224 549.333 432 544" stroke="black" stroke-width="16" stroke-linecap="round" stroke-linejoin="round"/>
<path d="M488 346C505.673 346 520 331.673 520 314C520 296.327 505.673 282 488 282C470.327 282 456 296.327 456 314C456 331.673 470.327 346 488 346Z" stroke="black" stroke-width="12" stroke-linecap="round" stroke-linejoin="round"/>
<path d="M460 300C469.333 302.667 478.667 304 488 304C497.333 304 506.667 302.667 516 300" stroke="black" stroke-width="12" stroke-linecap="round" stroke-linejoin="round"/>
<path d="M488 320C493.523 320 498 315.523 498 310C498 304.477 493.523 300 488 300C482.477 300 478 304.477 478 310C478 315.523 482.477 320 488 320Z" fill="black"/>
<path d="M350 347C367.673 347 382 332.673 382 315C382 297.327 367.673 283 350 283C332.327 283 318 297.327 318 315C318 332.673 332.327 347 350 347Z" stroke="black" stroke-width="12" stroke-linecap="round" stroke-linejoin="round"/>
<path d="M322 301C331.333 303.667 340.667 305 350 305C359.333 305 368.667 303.667 378 301" stroke="black" stroke-width="12" stroke-linecap="round" stroke-linejoin="round"/>
<path d="M350 321C355.523 321 360 316.523 360 311C360 305.477 355.523 301 350 301C344.477 301 340 305.477 340 311C340 316.523 344.477 321 350 321Z" fill="black"/>
<path d="M297.477 271.734L374.378 249.683" stroke="black" stroke-width="24" stroke-linecap="round" stroke-linejoin="round"/>
<path d="M539.378 271.734L462.477 249.683" stroke="black" stroke-width="24" stroke-linecap="round" stroke-linejoin="round"/>
<path fill-rule="evenodd" clip-rule="evenodd" d="M401.319 298.941C406.966 275.412 400.378 250 325.083 250C249.789 250 246.025 280.118 243.201 298.941C240.378 317.765 230.025 390.235 300.613 393.059C371.201 395.882 395.672 322.471 401.319 298.941Z" fill="#0C0C0C" stroke="black" stroke-width="8" stroke-linecap="round" stroke-linejoin="round"/>
<path fill-rule="evenodd" clip-rule="evenodd" d="M437.685 298.941C432.038 275.412 438.626 250 513.92 250C589.214 250 592.979 280.118 595.802 298.941C598.626 317.765 608.979 390.235 538.391 393.059C467.802 395.882 443.332 322.471 437.685 298.941Z" fill="#0C0C0C" stroke="black" stroke-width="8" stroke-linecap="round" stroke-linejoin="round"/>
<path d="M374.966 257.529H464.378" stroke="black" stroke-width="8" stroke-linecap="round" stroke-linejoin="round"/>
<path d="M374.966 285.765C390.213 284.51 405.272 283.882 420.142 283.882C435.013 283.882 449.758 284.51 464.378 285.765" stroke="black" stroke-width="8" stroke-linecap="round" stroke-linejoin="round"/>
<path d="M290.484 292.568L73.8267 330.771" stroke="black" stroke-width="16" stroke-linecap="round" stroke-linejoin="round"/>
<path fill-rule="evenodd" clip-rule="evenodd" d="M359.545 7.01201C359.545 7.01201 297.5 38.639 288.545 45.012C325.545 20.012 411.545 33.012 411.545 33.012C411.545 33.012 333.932 51.63 325.205 59.512C325.205 59.512 337.545 45.012 375.545 45.012C413.545 45.012 458.545 64.012 458.545 64.012C458.545 64.012 348.892 88.613 333.762 108.11C332.123 110.221 366 89 412 89C458 89 510 64 510 64C510 64 481.829 100.943 467 108C432.422 124.455 423.358 116.795 412 127C420.504 121.686 459.545 119.012 476 121C492.455 122.988 517 114 517 114C517 114 500.315 141.83 482 145C524.964 163.258 528 167 543 191C558 215 566.805 292 566.805 292C566.805 292 550.365 274.07 542.687 266.187C546.667 303.004 541.59 336.942 527.458 368C527.998 340.779 524.555 311.785 517.13 281.019C512.583 262.181 507 235 492.248 220.855C477.496 206.71 412 185 333 185C254 185 208.104 205.958 192 203C184.393 201.603 173.492 207.444 159.296 220.523L160.068 223.708C168.266 257.686 172.365 280.363 172.365 291.739C172.365 303.233 163.924 347.725 147.044 425.215L146 430L108.117 339.825H67.146C51.78 282.748 48.106 243.654 56.123 222.543C64.14 201.432 102.047 172.666 86 185C80 115 108 88 172 45C236 2.00002 359.545 7.01201 359.545 7.01201Z" fill="black" stroke="black" stroke-width="12" stroke-linecap="round" stroke-linejoin="round"/>
</svg>
